HIERARCHY
ROOT Hips
{
	OFFSET 0.000000 97.167313 0.000000
	CHANNELS 6 Xposition Yposition Zposition Xrotation Yrotation Zrotation
	JOINT Spine
	{
		OFFSET 0.000000 13.784798 0.064400
		CHANNELS 3 Xrotation Yrotation Zrotation
		JOINT Spine1
		{
			OFFSET 0.000000 12.037903 0.404700
			CHANNELS 3 Xrotation Yrotation Zrotation
			JOINT Spine2
			{
				OFFSET 0.000000 17.795601 0.420200
				CHANNELS 3 Xrotation Yrotation Zrotation
				JOINT Neck
				{
					OFFSET 0.000000 39.131302 11.954600
					CHANNELS 3 Xrotation Yrotation Zrotation
					JOINT Head
					{
						OFFSET 0.000000 14.456192 15.627699
						CHANNELS 3 Xrotation Yrotation Zrotation
						JOINT HeadTop_End
						{
							OFFSET 0.000000 15.703506 7.603401
							CHANNELS 3 Xrotation Yrotation Zrotation
							End Site
							{
								OFFSET 0.000000 17.447403 0.000000
							}
						}
					}
				}
				JOINT LeftShoulder
				{
					OFFSET 17.399500 24.608795 1.168800
					CHANNELS 3 Xrotation Yrotation Zrotation
					JOINT LeftArm
					{
						OFFSET 18.980635 5.765305 1.818600
						CHANNELS 3 Xrotation Yrotation Zrotation
						JOINT LeftForeArm
						{
							OFFSET 49.290169 0.000000 0.000000
							CHANNELS 3 Xrotation Yrotation Zrotation
							JOINT LeftHand
							{
								OFFSET 31.562012 0.000000 0.000000
								CHANNELS 3 Xrotation Yrotation Zrotation
								JOINT LeftHandThumb1
								{
									OFFSET 6.133995 -4.388519 7.076070
									CHANNELS 3 Xrotation Yrotation Zrotation
									JOINT LeftHandThumb2
									{
										OFFSET 6.037666 -3.485840 3.485847
										CHANNELS 3 Xrotation Yrotation Zrotation
										JOINT LeftHandThumb3
										{
											OFFSET 6.496506 -3.750763 3.750761
											CHANNELS 3 Xrotation Yrotation Zrotation
											JOINT LeftHandThumb4
											{
												OFFSET 5.616882 -3.242905 3.242910
												CHANNELS 3 Xrotation Yrotation Zrotation
												End Site
												{
													OFFSET -1.254608 7.132141 0.375429
												}
											}
										}
									}
								}
								JOINT LeftHandPinky1
								{
									OFFSET 18.920792 -0.453171 -11.426712
									CHANNELS 3 Xrotation Yrotation Zrotation
									JOINT LeftHandPinky2
									{
										OFFSET 4.919586 0.000000 0.000000
										CHANNELS 3 Xrotation Yrotation Zrotation
										JOINT LeftHandPinky3
										{
											OFFSET 5.233047 0.000000 0.000000
											CHANNELS 3 Xrotation Yrotation Zrotation
											JOINT LeftHandPinky4
											{
												OFFSET 5.571716 0.000000 0.000000
												CHANNELS 3 Xrotation Yrotation Zrotation
												End Site
												{
													OFFSET -3.459808 4.342407 -0.466164
												}
											}
										}
									}
								}
								JOINT LeftHandRing1
								{
									OFFSET 22.726120 -0.094986 -6.500475
									CHANNELS 3 Xrotation Yrotation Zrotation
									JOINT LeftHandRing2
									{
										OFFSET 6.408615 0.000000 0.000000
										CHANNELS 3 Xrotation Yrotation Zrotation
										JOINT LeftHandRing3
										{
											OFFSET 6.150223 0.000000 0.000000
											CHANNELS 3 Xrotation Yrotation Zrotation
											JOINT LeftHandRing4
											{
												OFFSET 6.145386 0.000000 0.000000
												CHANNELS 3 Xrotation Yrotation Zrotation
												End Site
												{
													OFFSET -3.671402 4.923981 -0.202372
												}
											}
										}
									}
								}
								JOINT LeftHandMiddle1
								{
									OFFSET 23.373947 0.000000 0.000001
									CHANNELS 3 Xrotation Yrotation Zrotation
									JOINT LeftHandMiddle2
									{
										OFFSET 6.996567 0.000000 0.000000
										CHANNELS 3 Xrotation Yrotation Zrotation
										JOINT LeftHandMiddle3
										{
											OFFSET 7.015945 0.000000 0.000000
											CHANNELS 3 Xrotation Yrotation Zrotation
											JOINT LeftHandMiddle4
											{
												OFFSET 7.721573 0.000000 0.000000
												CHANNELS 3 Xrotation Yrotation Zrotation
												End Site
												{
													OFFSET -4.651108 6.158463 0.251582
												}
											}
										}
									}
								}
								JOINT LeftHandIndex1
								{
									OFFSET 21.310577 -0.490082 6.209344
									CHANNELS 3 Xrotation Yrotation Zrotation
									JOINT LeftHandIndex2
									{
										OFFSET 7.536453 0.000000 0.000000
										CHANNELS 3 Xrotation Yrotation Zrotation
										JOINT LeftHandIndex3
										{
											OFFSET 7.512344 0.000000 0.000000
											CHANNELS 3 Xrotation Yrotation Zrotation
											JOINT LeftHandIndex4
											{
												OFFSET 10.212402 0.000000 0.000001
												CHANNELS 3 Xrotation Yrotation Zrotation
												End Site
												{
													OFFSET -5.180801 8.690506 1.388433
												}
											}
										}
									}
								}
							}
						}
					}
				}
				JOINT RightShoulder
				{
					OFFSET -17.399500 24.608795 1.168800
					CHANNELS 3 Xrotation Yrotation Zrotation
					JOINT RightArm
					{
						OFFSET -18.980635 5.765305 1.818600
						CHANNELS 3 Xrotation Yrotation Zrotation
						JOINT RightForeArm
						{
							OFFSET -49.290169 0.000000 0.000000
							CHANNELS 3 Xrotation Yrotation Zrotation
							JOINT RightHand
							{
								OFFSET -31.562012 0.000000 0.000000
								CHANNELS 3 Xrotation Yrotation Zrotation
								JOINT RightHandThumb1
								{
									OFFSET -6.133995 -4.388519 7.076070
									CHANNELS 3 Xrotation Yrotation Zrotation
									JOINT RightHandThumb2
									{
										OFFSET -6.037666 -3.485840 3.485847
										CHANNELS 3 Xrotation Yrotation Zrotation
										JOINT RightHandThumb3
										{
											OFFSET -6.496506 -3.750763 3.750761
											CHANNELS 3 Xrotation Yrotation Zrotation
											JOINT RightHandThumb4
											{
												OFFSET -5.616882 -3.242905 3.242910
												CHANNELS 3 Xrotation Yrotation Zrotation
												End Site
												{
													OFFSET 1.254608 7.132141 0.375429
												}
											}
										}
									}
								}
								JOINT RightHandIndex1
								{
									OFFSET -21.310577 -0.490082 6.209344
									CHANNELS 3 Xrotation Yrotation Zrotation
									JOINT RightHandIndex2
									{
										OFFSET -7.536453 0.000000 0.000000
										CHANNELS 3 Xrotation Yrotation Zrotation
										JOINT RightHandIndex3
										{
											OFFSET -7.512344 0.000000 0.000000
											CHANNELS 3 Xrotation Yrotation Zrotation
											JOINT RightHandIndex4
											{
												OFFSET -10.212402 0.000000 0.000001
												CHANNELS 3 Xrotation Yrotation Zrotation
												End Site
												{
													OFFSET 5.180801 8.690506 1.388433
												}
											}
										}
									}
								}
								JOINT RightHandMiddle1
								{
									OFFSET -23.373947 0.000000 0.000001
									CHANNELS 3 Xrotation Yrotation Zrotation
									JOINT RightHandMiddle2
									{
										OFFSET -6.996567 0.000000 0.000000
										CHANNELS 3 Xrotation Yrotation Zrotation
										JOINT RightHandMiddle3
										{
											OFFSET -7.015945 0.000000 0.000000
											CHANNELS 3 Xrotation Yrotation Zrotation
											JOINT RightHandMiddle4
											{
												OFFSET -7.721573 0.000000 0.000000
												CHANNELS 3 Xrotation Yrotation Zrotation
												End Site
												{
													OFFSET 4.651108 6.158463 0.251582
												}
											}
										}
									}
								}
								JOINT RightHandRing1
								{
									OFFSET -22.726120 -0.094986 -6.500475
									CHANNELS 3 Xrotation Yrotation Zrotation
									JOINT RightHandRing2
									{
										OFFSET -6.408615 0.000000 0.000000
										CHANNELS 3 Xrotation Yrotation Zrotation
										JOINT RightHandRing3
										{
											OFFSET -6.150223 0.000000 0.000000
											CHANNELS 3 Xrotation Yrotation Zrotation
											JOINT RightHandRing4
											{
												OFFSET -6.145386 0.000000 0.000000
												CHANNELS 3 Xrotation Yrotation Zrotation
												End Site
												{
													OFFSET 3.671402 4.923981 -0.202372
												}
											}
										}
									}
								}
								JOINT RightHandPinky1
								{
									OFFSET -18.920792 -0.453171 -11.426712
									CHANNELS 3 Xrotation Yrotation Zrotation
									JOINT RightHandPinky2
									{
										OFFSET -4.919586 0.000000 0.000000
										CHANNELS 3 Xrotation Yrotation Zrotation
										JOINT RightHandPinky3
										{
											OFFSET -5.233047 0.000000 0.000000
											CHANNELS 3 Xrotation Yrotation Zrotation
											JOINT RightHandPinky4
											{
												OFFSET -5.571716 0.000000 0.000000
												CHANNELS 3 Xrotation Yrotation Zrotation
												End Site
												{
													OFFSET 3.459808 4.342407 -0.466164
												}
											}
										}
									}
								}
							}
						}
					}
				}
			}
		}
	}
	JOINT LeftUpLeg
	{
		OFFSET 19.899099 -7.885101 -3.429500
		CHANNELS 3 Xrotation Yrotation Zrotation
		JOINT LeftLeg
		{
			OFFSET 1.745560 -36.997807 10.304700
			CHANNELS 3 Xrotation Yrotation Zrotation
			JOINT LeftFoot
			{
				OFFSET -1.745558 -29.803308 -13.615400
				CHANNELS 3 Xrotation Yrotation Zrotation
				JOINT LeftToeBase
				{
					OFFSET 1.181900 -18.539904 15.226099
					CHANNELS 3 Xrotation Yrotation Zrotation
					JOINT LeftToe_End
					{
						OFFSET -0.863701 1.402801 16.534700
						CHANNELS 3 Xrotation Yrotation Zrotation
						End Site
						{
							OFFSET 0.000000 16.616566 0.000000
						}
					}
				}
			}
		}
	}
	JOINT RightUpLeg
	{
		OFFSET -19.899099 -7.885101 -3.429500
		CHANNELS 3 Xrotation Yrotation Zrotation
		JOINT RightLeg
		{
			OFFSET -1.745560 -36.997807 10.304700
			CHANNELS 3 Xrotation Yrotation Zrotation
			JOINT RightFoot
			{
				OFFSET 1.745558 -29.803308 -13.615400
				CHANNELS 3 Xrotation Yrotation Zrotation
				JOINT RightToeBase
				{
					OFFSET -1.181900 -18.539904 15.226099
					CHANNELS 3 Xrotation Yrotation Zrotation
					JOINT RightToe_End
					{
						OFFSET 0.863701 1.402801 16.534700
						CHANNELS 3 Xrotation Yrotation Zrotation
						End Site
						{
							OFFSET 0.000000 16.616566 0.000000
						}
					}
				}
			}
		}
	}
}
MOTION
Frames: 4
Frame Time: 0.033333
0.715189 85.074203 -0.439820 2.136338 -10.052783 -1.504731 21.556301 5.681656 0.855819 2.951614 1.865108 -0.160994 2.950959 1.939448 -0.175154 -4.099838 15.090186 2.372694 6.098626 46.772907 -19.938096 -0.000000 -0.000002 0.000001 1.306156 -33.191287 4.056577 -22.439086 -14.543445 -67.584763 0.000006 -44.463695 -8.793784 -35.436667 -8.587738 -7.126252 -7.471932 1.860695 -7.166909 30.987031 27.310513 -4.510893 83.254644 13.297942 -10.940306 0.000004 -0.000001 -0.000001 -14.013713 3.966951 -44.412602 0.013506 0.024902 -64.018926 0.008414 0.013187 -43.300551 0.000000 -0.000002 -0.000001 -7.759325 20.770704 -77.712711 0.013339 0.983454 -51.003598 6.778254 8.421310 -40.137890 -0.000002 0.000004 0.000004 1.616602 16.582668 -84.688806 0.018016 0.022042 -72.884860 -1.306123 -0.091040 -19.943090 -0.000002 -0.000001 0.000008 -4.686391 11.374029 -75.571139 -0.816402 3.074009 -46.874622 -4.740620 0.379132 -78.699461 -0.000000 0.000003 0.000001 9.474262 21.562342 -11.639589 -44.239077 10.875447 78.236805 0.000062 50.076410 2.035002 -28.523172 16.871197 6.756821 9.347186 2.810559 -11.364509 16.169110 -43.266001 15.843583 32.491784 -44.566807 5.661119 0.000003 0.000001 0.000004 17.076810 -0.396523 31.924332 -0.204420 -0.284213 112.811543 1.553138 -1.173024 33.344543 -0.000001 -0.000001 -0.000001 9.205489 -5.035907 102.738073 0.014984 -0.019203 61.018513 1.871353 0.346200 31.443794 -0.000000 0.000000 -0.000008 5.569163 -8.935227 107.329087 0.547992 -0.005789 41.263710 0.739126 0.837861 51.122228 -0.000004 -0.000004 -0.000004 6.511230 -17.148242 98.228010 0.007415 -0.015764 43.845723 0.011240 -0.024789 57.754570 0.000006 0.000003 0.000006 -38.845318 1.228755 9.543734 31.963537 -0.765883 2.230107 5.029274 0.725920 -6.149811 -0.389913 -1.257105 -0.209097 0.000000 -0.000000 0.000000 -4.766690 -11.306839 -15.672171 30.740441 -7.261048 4.223943 -22.471713 -6.291260 15.584605 -1.185613 0.325724 0.665571 0.000000 -0.000003 -0.000000 
0.899208 85.080658 0.074290 2.295112 -9.352454 -1.459184 21.452130 5.641544 0.368025 2.917134 1.985256 -0.390848 2.916579 2.058882 -0.406592 -4.390909 14.896786 2.706929 5.129823 46.544990 -18.898485 -0.000000 0.000001 -0.000000 1.216779 -33.714487 4.232021 -21.704815 -14.643572 -67.511427 0.000035 -44.942508 -7.663716 -34.862897 -7.769638 -7.870582 -7.471934 1.860694 -7.166923 30.987028 27.310511 -4.510891 83.254644 13.297942 -10.940309 0.000000 -0.000000 0.000000 -14.195122 4.208176 -44.304808 0.013617 0.024944 -64.268911 0.008336 0.013124 -43.053404 -0.000000 0.000004 -0.000005 -7.746363 20.807551 -77.664059 0.013343 0.983449 -51.003604 6.778246 8.421299 -40.137883 -0.000001 0.000000 0.000003 1.616609 16.582656 -84.688834 0.018018 0.022039 -72.884860 -1.306132 -0.091040 -19.943085 -0.000001 -0.000001 0.000008 -4.686556 11.373799 -75.565019 -0.816400 3.074009 -46.874622 -4.740618 0.379138 -78.699461 -0.000003 0.000004 0.000002 9.352120 20.644018 -11.270547 -44.692158 11.251938 79.128500 0.000023 49.534205 1.683197 -28.576093 17.303987 6.626707 9.347181 2.810564 -11.364514 16.169109 -43.266001 15.843580 32.491787 -44.566803 5.661122 0.000006 0.000000 0.000001 17.076812 -0.396520 31.924325 -0.204418 -0.284214 112.811543 1.553138 -1.173022 33.344543 -0.000000 -0.000001 -0.000003 9.205489 -5.035903 102.738073 0.014988 -0.019205 61.018519 1.871354 0.346202 31.443800 0.000000 -0.000000 -0.000006 5.569163 -8.935224 107.329080 0.547990 -0.005789 41.263710 0.739122 0.837866 51.122231 -0.000002 -0.000000 -0.000003 6.511232 -17.148240 98.228010 0.007411 -0.015766 43.845723 0.011244 -0.024782 57.754570 0.000001 -0.000002 0.000005 -38.941217 1.273466 8.919746 32.166356 -1.081987 2.324393 4.701366 0.691847 -5.791959 -0.395710 -1.291658 -0.208760 0.000000 -0.000001 0.000000 -3.864383 -11.473872 -15.798817 30.143179 -7.778626 4.234948 -22.576823 -6.558583 16.175681 -1.223655 0.270148 0.714839 0.000000 -0.000000 -0.000000 
1.058124 85.059982 0.575611 2.454507 -8.742547 -1.381785 21.348149 5.577197 -0.114573 2.878256 2.069780 -0.624885 2.876967 2.143173 -0.641693 -4.672453 14.693776 3.114029 4.033495 46.222356 -17.716242 -0.000000 -0.000001 0.000001 1.177289 -34.220675 4.459815 -20.925131 -14.883110 -67.421221 0.000025 -45.299976 -6.535501 -34.631269 -7.240544 -8.609881 -7.471937 1.860695 -7.166914 30.987028 27.310508 -4.510892 83.254637 13.297945 -10.940309 0.000001 -0.000001 -0.000003 -14.379078 4.459825 -44.205497 0.013707 0.024998 -64.521922 0.008289 0.013044 -42.797439 0.000001 -0.000000 0.000003 -7.733530 20.845775 -77.617238 0.013345 0.983464 -51.003604 6.778252 8.421298 -40.137907 -0.000002 0.000001 0.000003 1.616603 16.582658 -84.688813 0.018021 0.022040 -72.884880 -1.306112 -0.091048 -19.943109 0.000001 -0.000007 0.000008 -4.686688 11.373574 -75.558865 -0.816404 3.074011 -46.874629 -4.740617 0.379133 -78.699468 -0.000003 0.000004 0.000006 9.326593 20.046026 -11.021186 -45.044302 11.395515 79.862253 0.000054 49.125350 1.440769 -28.476239 17.693836 6.389393 9.347182 2.810563 -11.364510 16.169107 -43.266001 15.843580 32.491794 -44.566810 5.661121 -0.000002 0.000000 0.000002 17.076810 -0.396519 31.924335 -0.204414 -0.284213 112.811550 1.553140 -1.173025 33.344540 -0.000001 -0.000001 0.000001 9.205489 -5.035901 102.738073 0.014988 -0.019202 61.018513 1.871353 0.346200 31.443800 0.000002 -0.000000 -0.000009 5.569163 -8.935223 107.329087 0.547989 -0.005788 41.263710 0.739126 0.837867 51.122231 -0.000001 0.000001 -0.000003 6.511231 -17.148245 98.228010 0.007408 -0.015763 43.845730 0.011241 -0.024791 57.754570 0.000003 0.000000 -0.000003 -39.032106 1.362874 8.339631 32.420186 -1.373748 2.424715 4.329091 0.664577 -5.474008 -0.412888 -1.385391 -0.206846 0.000000 -0.000000 0.000000 -3.042742 -11.532052 -15.940482 29.663348 -8.303208 4.248106 -22.718980 -6.824568 16.752627 -1.263110 0.206520 0.771717 0.000000 0.000000 0.000000 
1.196828 85.017281 1.058176 2.613755 -8.225542 -1.299415 21.233866 5.483928 -0.574564 2.849303 2.129480 -0.844700 2.847438 2.202040 -0.862805 -4.929249 14.453382 3.540124 2.841592 45.921018 -16.428784 -0.000001 0.000002 0.000001 1.163075 -34.736430 4.700200 -20.077623 -15.281495 -67.271974 0.000065 -45.545908 -5.419460 -34.788971 -6.993106 -9.291080 -7.471931 1.860695 -7.166914 30.987028 27.310515 -4.510896 83.254637 13.297945 -10.940308 -0.000001 -0.000000 -0.000002 -14.564876 4.721684 -44.114341 0.013825 0.025035 -64.777903 0.008207 0.012978 -42.532930 -0.000001 0.000001 0.000001 -7.720573 20.885270 -77.572309 0.013343 0.983455 -51.003608 6.778252 8.421303 -40.137904 0.000002 -0.000004 0.000005 1.616590 16.582661 -84.688793 0.018021 0.022042 -72.884867 -1.306126 -0.091045 -19.943109 -0.000001 0.000001 0.000004 -4.686850 11.373334 -75.552588 -0.816397 3.074002 -46.874629 -4.740618 0.379138 -78.699468 -0.000000 0.000001 0.000002 9.325780 19.801676 -10.910308 -45.200426 11.259160 80.387911 -0.001082 48.894261 1.360731 -28.244207 18.049234 6.025554 9.347182 2.810563 -11.364510 16.169107 -43.266001 15.843577 32.491790 -44.566803 5.661121 0.000001 0.000001 0.000001 17.076812 -0.396523 31.924328 -0.204415 -0.284215 112.811543 1.553140 -1.173022 33.344540 -0.000001 -0.000001 0.000001 9.205489 -5.035906 102.738073 0.014987 -0.019205 61.018519 1.871353 0.346202 31.443800 0.000001 0.000000 -0.000008 5.569163 -8.935230 107.329094 0.547989 -0.005789 41.263707 0.739126 0.837865 51.122228 0.000000 -0.000000 -0.000005 6.511233 -17.148245 98.228010 0.007408 -0.015762 43.845727 0.011242 -0.024787 57.754563 -0.000002 -0.000003 0.000004 -39.120393 1.431777 7.814573 32.730734 -1.594835 2.542195 3.914385 0.644142 -5.223531 -0.420653 -1.430415 -0.206163 0.000000 -0.000000 0.000000 -2.304249 -11.511485 -16.061256 29.271691 -8.817089 4.234262 -22.874780 -7.086348 17.314349 -1.234819 0.174850 0.806955 -0.000000 0.000002 -0.000000 
